<svg xmlns="http://www.w3.org/2000/svg" width="100" height="100" viewBox="0 0 100 100">
  <rect width="100" height="90" fill="#f8f9fa"/>

  <g fill="#333">
    <!-- Titre -->
    <rect x="3" y="3" width="28" height="5" rx="1"/>

    <!-- Bloc 1 -->
    <g transform="translate(3 13)">
      <rect x="0" y="0" width="8" height="3" rx=".7"/>
      <rect x="10" y="0" width="13" height="3" rx=".7"/>
      <rect x="25" y="0" width="18" height="3" rx=".7"/>
      <rect x="45" y="0" width="12" height="3" rx=".7"/>
      <rect x="59" y="0" width="17" height="3" rx=".7"/>
      <rect x="78" y="0" width="16" height="3" rx=".7"/>

      <rect x="0" y="5" width="14" height="3" rx=".7"/>
      <rect x="16" y="5" width="20" height="3" rx=".7"/>
      <rect x="38" y="5" width="12" height="3" rx=".7"/>
      <rect x="52" y="5" width="18" height="3" rx=".7"/>
      <rect x="72" y="5" width="22" height="3" rx=".7"/>

      <rect x="0" y="10" width="19" height="3" rx=".7"/>
      <rect x="21" y="10" width="13" height="3" rx=".7"/>
      <rect x="36" y="10" width="23" height="3" rx=".7"/>
      <rect x="61" y="10" width="11" height="3" rx=".7"/>
      <rect x="74" y="10" width="20" height="3" rx=".7"/>

      <rect x="0" y="15" width="25" height="3" rx=".7"/>
      <rect x="27" y="15" width="16" height="3" rx=".7"/>
      <rect x="45" y="15" width="21" height="3" rx=".7"/>
      <rect x="68" y="15" width="26" height="3" rx=".7"/>
    </g>

    <!-- Bloc 2 -->
    <g transform="translate(3 38)">
      <rect x="0" y="0" width="13" height="3" rx=".7"/>
      <rect x="15" y="0" width="18" height="3" rx=".7"/>
      <rect x="35" y="0" width="9" height="3" rx=".7"/>
      <rect x="46" y="0" width="17" height="3" rx=".7"/>
      <rect x="65" y="0" width="12" height="3" rx=".7"/>
      <rect x="79" y="0" width="15" height="3" rx=".7"/>

      <rect x="0" y="5" width="20" height="3" rx=".7"/>
      <rect x="22" y="5" width="13" height="3" rx=".7"/>
      <rect x="37" y="5" width="22" height="3" rx=".7"/>
      <rect x="61" y="5" width="15" height="3" rx=".7"/>
      <rect x="78" y="5" width="16" height="3" rx=".7"/>

      <rect x="0" y="10" width="11" height="3" rx=".7"/>
      <rect x="13" y="10" width="21" height="3" rx=".7"/>
      <rect x="36" y="10" width="17" height="3" rx=".7"/>
      <rect x="55" y="10" width="12" height="3" rx=".7"/>
      <rect x="69" y="10" width="25" height="3" rx=".7"/>

      <rect x="0" y="15" width="17" height="3" rx=".7"/>
      <rect x="19" y="15" width="24" height="3" rx=".7"/>
      <rect x="45" y="15" width="13" height="3" rx=".7"/>
      <rect x="60" y="15" width="21" height="3" rx=".7"/>
    </g>

    <!-- Bloc 3 -->
    <g transform="translate(3 63)">
      <rect x="0" y="0" width="11" height="3" rx=".7"/>
      <rect x="13" y="0" width="22" height="3" rx=".7"/>
      <rect x="37" y="0" width="14" height="3" rx=".7"/>
      <rect x="53" y="0" width="18" height="3" rx=".7"/>
      <rect x="73" y="0" width="21" height="3" rx=".7"/>

      <rect x="0" y="5" width="18" height="3" rx=".7"/>
      <rect x="20" y="5" width="15" height="3" rx=".7"/>
      <rect x="37" y="5" width="20" height="3" rx=".7"/>
      <rect x="59" y="5" width="13" height="3" rx=".7"/>
      <rect x="74" y="5" width="20" height="3" rx=".7"/>

      <rect x="0" y="10" width="13" height="3" rx=".7"/>
      <rect x="15" y="10" width="24" height="3" rx=".7"/>
      <rect x="41" y="10" width="11" height="3" rx=".7"/>
      <rect x="54" y="10" width="17" height="3" rx=".7"/>
      <rect x="73" y="10" width="21" height="3" rx=".7"/>

      <rect x="0" y="15" width="20" height="3" rx=".7"/>
      <rect x="22" y="15" width="16" height="3" rx=".7"/>
      <rect x="40" y="15" width="24" height="3" rx=".7"/>
      <rect x="66" y="15" width="18" height="3" rx=".7"/>
    </g>
  </g>
</svg>